<svg width="16" height="19" viewBox="0 0 16 19" fill="none" xmlns="http://www.w3.org/2000/svg">
<path d="M10.5664 8.82812C10.5664 8.26562 10.1445 7.80859 9.65234 7.80859C9.125 7.80859 8.70312 8.26562 8.70312 8.82812C8.70312 9.35547 9.125 9.8125 9.65234 9.8125C10.1445 9.8125 10.5664 9.35547 10.5664 8.82812ZM6.34766 7.80859C5.85547 7.80859 5.43359 8.26562 5.43359 8.82812C5.43359 9.35547 5.85547 9.8125 6.34766 9.8125C6.875 9.8125 7.26172 9.35547 7.26172 8.82812C7.29688 8.26562 6.875 7.80859 6.34766 7.80859ZM15.875 2.11328C15.875 1.09375 15.0312 0.25 14.0117 0.25H1.95312C0.933594 0.25 0.125 1.09375 0.125 2.11328V14.2773C0.125 15.332 0.933594 16.1406 1.95312 16.1406H12.1484L11.6914 14.4883C14.3281 16.9141 13.5898 16.2812 15.875 18.25V2.11328ZM13.3086 10.6562C13.3086 10.6562 12.5352 11.957 10.5312 12.0273C10.5312 12.0273 10.2148 11.6406 9.93359 11.2891C11.1289 10.9727 11.5859 10.2344 11.5859 10.2344C11.1992 10.4805 10.8477 10.6211 10.5312 10.7617C8.59766 11.5703 6.45312 11.2891 4.90625 10.4453C4.90625 10.4102 4.69531 10.3047 4.55469 10.1992C4.55469 10.1992 4.97656 10.9375 6.13672 11.2891C5.85547 11.6055 5.53906 12.0273 5.53906 12.0273C3.53516 11.957 2.79688 10.6562 2.79688 10.6562C2.79688 7.73828 4.0625 5.41797 4.0625 5.41797C5.36328 4.43359 6.59375 4.46875 6.59375 4.46875L6.69922 4.57422C5.08203 5.03125 4.34375 5.73438 4.34375 5.73438C4.34375 5.73438 4.51953 5.62891 4.87109 5.48828C6.94531 4.57422 9.44141 4.57422 11.5859 5.73438C11.5859 5.73438 10.8828 5.06641 9.33594 4.60938L9.47656 4.46875C9.47656 4.46875 10.707 4.43359 12.0078 5.41797C12.0078 5.41797 13.3086 7.73828 13.3086 10.6562Z" fill="white"/>
</svg>
