<svg width="43" height="14" viewBox="0 0 43 14" fill="none" xmlns="http://www.w3.org/2000/svg">
<path d="M7.568 3.02V1.2H0.162V11H2.43V7.43H6.966V5.61H2.43V3.02H7.568ZM16.0153 11H18.3953L14.0133 1.2H11.7733L7.40525 11H9.72925L10.5973 8.9H15.1473L16.0153 11ZM11.3253 7.178L12.8793 3.426L14.4333 7.178H11.3253ZM28.8653 10.846C28.4033 11.336 27.8713 11.574 27.2693 11.574C26.7793 11.574 26.3593 11.392 25.8833 10.888C27.9693 10.216 29.3833 8.396 29.3833 6.1C29.3833 3.174 27.1013 1.032 24.0213 1.032C20.9273 1.032 18.6593 3.188 18.6593 6.1C18.6593 8.76 20.5493 10.79 23.2373 11.126C24.7493 12.722 25.7713 13.254 27.2273 13.254C28.3053 13.254 29.2293 12.834 29.8733 12.05L28.8653 10.846ZM20.9553 6.1C20.9553 4.238 22.2713 2.964 24.0213 2.964C25.7713 2.964 27.0873 4.238 27.0873 6.1C27.0873 7.962 25.7713 9.236 24.0213 9.236C22.2713 9.236 20.9553 7.962 20.9553 6.1ZM31.5687 0.499999C30.7987 0.499999 30.2107 1.032 30.2107 1.844C30.2107 2.432 30.5047 2.852 30.9527 3.048L30.3507 5.26H31.7367L32.5487 3.244C32.8567 2.474 32.9127 2.208 32.9127 1.844C32.9127 1.046 32.3527 0.499999 31.5687 0.499999ZM37.9035 11.168C40.7035 11.168 42.0615 9.768 42.0615 8.13C42.0615 4.532 36.3635 5.778 36.3635 3.972C36.3635 3.356 36.8815 2.852 38.2255 2.852C39.0935 2.852 40.0315 3.104 40.9415 3.622L41.6415 1.9C40.7315 1.326 39.4715 1.032 38.2395 1.032C35.4535 1.032 34.1095 2.418 34.1095 4.084C34.1095 7.724 39.8075 6.464 39.8075 8.298C39.8075 8.9 39.2615 9.348 37.9175 9.348C36.7415 9.348 35.5095 8.928 34.6835 8.326L33.9135 10.034C34.7815 10.706 36.3495 11.168 37.9035 11.168Z" fill="url(#paint0_linear)"/>
<defs>
<linearGradient id="paint0_linear" x1="45.2222" y1="-8.50002" x2="-4.10047" y2="-3.45711" gradientUnits="userSpaceOnUse">
<stop offset="0.0170869" stop-color="#0AE8AF"/>
<stop offset="1" stop-color="#7575F1"/>
</linearGradient>
</defs>
</svg>
