<svg width="24" height="22" viewBox="0 0 24 22" fill="none" xmlns="http://www.w3.org/2000/svg">
<path d="M8.5 16C5.77 15.48 4.17 14.44 3.5 13" stroke="white" stroke-width="2" stroke-miterlimit="10"/>
<path d="M4.5 9.00008C3.35 7.08008 2.8 3.62008 3.5 3.00008C6.6 5.50008 9.62 7.09008 12.5 7.00008C12.5 7.00008 12.5 2.00008 16.5 2.00008C17.5896 1.94819 18.6594 2.30479 19.5 3.00008H22.5L21.5 6.00008C21.7037 8.01639 21.4498 10.0527 20.7572 11.9573C20.0647 13.8618 18.9513 15.5856 17.5 17.0001C12.5 22.0001 4.5 21.0001 1.5 17.0001" stroke="white" stroke-width="2" stroke-miterlimit="10"/>
<path d="M5.5 13C4.69424 12.4063 4.01421 11.6587 3.49927 10.8004C2.98432 9.9422 2.64468 8.99036 2.5 8" stroke="white" stroke-width="2" stroke-miterlimit="10"/>
</svg>
