<svg width="25" height="24" viewBox="0 0 25 24" fill="none" xmlns="http://www.w3.org/2000/svg">
<path d="M1.5 1.47998H23.5V22.52H1.5V1.47998Z" stroke="white" stroke-width="1.91" stroke-miterlimit="10"/>
<path d="M11.0703 18.6999V12.4799C11.069 12.0404 11.1544 11.605 11.3217 11.1986C11.489 10.7923 11.7348 10.4229 12.045 10.1117C12.3553 9.80047 12.724 9.55355 13.1299 9.38508C13.5357 9.2166 13.9709 9.12988 14.4103 9.12988C15.2988 9.12988 16.1509 9.48283 16.7791 10.1111C17.4074 10.7393 17.7603 11.5914 17.7603 12.4799V18.6999" stroke="white" stroke-width="1.91" stroke-miterlimit="10"/>
<path d="M7.24023 8.16992V18.6999" stroke="white" stroke-width="1.91" stroke-miterlimit="10"/>
<path d="M7.2393 7.2198C7.76949 7.2198 8.1993 6.79 8.1993 6.2598C8.1993 5.72961 7.76949 5.2998 7.2393 5.2998C6.7091 5.2998 6.2793 5.72961 6.2793 6.2598C6.2793 6.79 6.7091 7.2198 7.2393 7.2198Z" fill="white"/>
<path d="M11.0703 8.16992V12.9599" stroke="white" stroke-width="1.91" stroke-miterlimit="10"/>
</svg>
