<svg width="98" height="11" viewBox="0 0 98 11" fill="none" xmlns="http://www.w3.org/2000/svg">
<path d="M6.882 0.199999V4.064H2.43V0.199999H0.162V10H2.43V5.982H6.882V10H9.15V0.199999H6.882ZM19.9806 0.199999H17.7546L15.1366 4.554L12.5186 0.199999H10.1106L13.9046 6.5V10H16.1726V6.528L19.9806 0.199999ZM20.8339 10H25.2859C28.4919 10 30.6899 8.068 30.6899 5.1C30.6899 2.132 28.4919 0.199999 25.2859 0.199999H20.8339V10ZM23.1019 8.138V2.062H25.1739C27.1199 2.062 28.3939 3.224 28.3939 5.1C28.3939 6.976 27.1199 8.138 25.1739 8.138H23.1019ZM41.0803 10L38.8823 6.85C40.1563 6.304 40.8983 5.226 40.8983 3.756C40.8983 1.558 39.2603 0.199999 36.6423 0.199999H32.4003V10H34.6683V7.27H36.6423H36.7543L38.6443 10H41.0803ZM38.6023 3.756C38.6023 4.82 37.9023 5.464 36.5163 5.464H34.6683V2.048H36.5163C37.9023 2.048 38.6023 2.678 38.6023 3.756ZM50.0172 10H52.3972L48.0152 0.199999H45.7752L41.4072 10H43.7312L44.5992 7.9H49.1492L50.0172 10ZM45.3272 6.178L46.8812 2.426L48.4352 6.178H45.3272ZM56.634 10.168C59.434 10.168 60.792 8.768 60.792 7.13C60.792 3.532 55.094 4.778 55.094 2.972C55.094 2.356 55.612 1.852 56.956 1.852C57.824 1.852 58.762 2.104 59.672 2.622L60.372 0.899999C59.462 0.325999 58.202 0.0319998 56.97 0.0319998C54.184 0.0319998 52.84 1.418 52.84 3.084C52.84 6.724 58.538 5.464 58.538 7.298C58.538 7.9 57.992 8.348 56.648 8.348C55.472 8.348 54.24 7.928 53.414 7.326L52.644 9.034C53.512 9.706 55.08 10.168 56.634 10.168ZM74.9837 0.199999L72.7017 7.144L70.4617 0.199999H68.3617L66.0517 7.088L63.8397 0.199999H61.4877L64.7077 10H67.1297L69.3557 3.364L71.5117 10H73.9477L77.1537 0.199999H74.9837ZM85.4137 10H87.7937L83.4117 0.199999H81.1717L76.8037 10H79.1277L79.9957 7.9H84.5457L85.4137 10ZM80.7237 6.178L82.2777 2.426L83.8317 6.178H80.7237ZM93.0524 0.199999H88.8104V10H91.0784V7.298H93.0524C95.6704 7.298 97.3084 5.94 97.3084 3.756C97.3084 1.558 95.6704 0.199999 93.0524 0.199999ZM92.9264 5.45H91.0784V2.048H92.9264C94.3124 2.048 95.0124 2.678 95.0124 3.756C95.0124 4.82 94.3124 5.45 92.9264 5.45Z" fill="url(#paint0_linear)"/>
<defs>
<linearGradient id="paint0_linear" x1="103" y1="-9.50002" x2="-3.5" y2="15" gradientUnits="userSpaceOnUse">
<stop offset="0.0170869" stop-color="#0AE8AF"/>
<stop offset="1" stop-color="#7575F1"/>
</linearGradient>
</defs>
</svg>
