<svg width="122" height="50" viewBox="0 0 122 50" fill="none" xmlns="http://www.w3.org/2000/svg">
<g filter="url(#filter0_b)">
<mask id="path-1-inside-1" fill="white">
<path fill-rule="evenodd" clip-rule="evenodd" d="M110 50C112.761 50 115 47.7614 115 45L115 31.125L122 25L115 18.875L115 5C115 2.23857 112.761 -8.07662e-07 110 -1.04907e-06L5 -1.02285e-05C2.23858 -1.04699e-05 -1.39861e-06 2.23857 -1.64002e-06 4.99999L-5.13693e-06 45C-5.37834e-06 47.7614 2.23857 50 4.99999 50L57.5 50L110 50Z"/>
</mask>
<path fill-rule="evenodd" clip-rule="evenodd" d="M110 50C112.761 50 115 47.7614 115 45L115 31.125L122 25L115 18.875L115 5C115 2.23857 112.761 -8.07662e-07 110 -1.04907e-06L5 -1.02285e-05C2.23858 -1.04699e-05 -1.39861e-06 2.23857 -1.64002e-06 4.99999L-5.13693e-06 45C-5.37834e-06 47.7614 2.23857 50 4.99999 50L57.5 50L110 50Z" fill="url(#paint0_linear)" fill-opacity="0.3"/>
<path d="M115 45L116 45L115 45ZM115 31.125L114.341 30.3724L114 30.6712L114 31.125L115 31.125ZM122 25L122.659 25.7526L123.519 25L122.659 24.2474L122 25ZM115 18.875L114 18.875L114 19.3288L114.341 19.6276L115 18.875ZM115 5L116 5L115 5ZM-1.64002e-06 4.99999L0.999998 4.99999L-1.64002e-06 4.99999ZM-5.13693e-06 45L-1.00001 45L-5.13693e-06 45ZM4.99999 50L4.99999 49L4.99999 50ZM57.5 50L57.5 51L57.5 50ZM114 45C114 47.2091 112.209 49 110 49L110 51C113.314 51 116 48.3137 116 45L114 45ZM114 31.125L114 45L116 45L116 31.125L114 31.125ZM121.341 24.2474L114.341 30.3724L115.659 31.8776L122.659 25.7526L121.341 24.2474ZM114.341 19.6276L121.341 25.7526L122.659 24.2474L115.659 18.1224L114.341 19.6276ZM114 5L114 18.875L116 18.875L116 5L114 5ZM110 0.999999C112.209 0.999999 114 2.79086 114 5L116 5C116 1.68629 113.314 -1 110 -1L110 0.999999ZM5 0.99999L110 0.999999L110 -1L5 -1.00001L5 0.99999ZM0.999998 4.99999C0.999999 2.79085 2.79086 0.99999 5 0.99999L5 -1.00001C1.68629 -1.00001 -1 1.68628 -1 4.99999L0.999998 4.99999ZM0.999995 45L0.999998 4.99999L-1 4.99999L-1.00001 45L0.999995 45ZM4.99999 49C2.79086 49 0.999995 47.2091 0.999995 45L-1.00001 45C-1.00001 48.3137 1.68629 51 4.99999 51L4.99999 49ZM57.5 49L4.99999 49L4.99999 51L57.5 51L57.5 49ZM110 49L57.5 49L57.5 51L110 51L110 49Z" fill="url(#paint1_linear)" mask="url(#path-1-inside-1)"/>
</g>
<defs>
<filter id="filter0_b" x="-5" y="-5" width="132" height="60" filterUnits="userSpaceOnUse" color-interpolation-filters="sRGB">
<feFlood flood-opacity="0" result="BackgroundImageFix"/>
<feGaussianBlur in="BackgroundImage" stdDeviation="2.5"/>
<feComposite in2="SourceAlpha" operator="in" result="effect1_backgroundBlur"/>
<feBlend mode="normal" in="SourceGraphic" in2="effect1_backgroundBlur" result="shape"/>
</filter>
<linearGradient id="paint0_linear" x1="57.5" y1="50" x2="21.0234" y2="-12.3077" gradientUnits="userSpaceOnUse">
<stop stop-color="white" stop-opacity="0.2"/>
<stop offset="1" stop-color="white" stop-opacity="0"/>
</linearGradient>
<linearGradient id="paint1_linear" x1="122" y1="1.53986" x2="31.5263" y2="19.5497" gradientUnits="userSpaceOnUse">
<stop stop-color="#7477F0"/>
<stop offset="1" stop-color="#0FE3B2"/>
</linearGradient>
</defs>
</svg>
