<svg width="16" height="17" viewBox="0 0 16 17" fill="none" xmlns="http://www.w3.org/2000/svg">
<path d="M0.125 0.375V16.125H15.875V0.375H0.125ZM13.2031 4.13672L12.3594 4.94531C12.2891 4.98047 12.2539 5.08594 12.2539 5.15625V11.1328C12.2539 11.2031 12.2891 11.3086 12.3594 11.3438L13.168 12.1523V12.3281H9.01953V12.1523L9.89844 11.3438C9.96875 11.2383 9.96875 11.2383 9.96875 11.0977V6.28125L7.57812 12.3281H7.26172L4.51953 6.28125V10.3242C4.48438 10.5 4.55469 10.6758 4.66016 10.7812L5.78516 12.1523V12.3281H2.62109V12.1523L3.71094 10.7812C3.85156 10.6758 3.88672 10.5 3.85156 10.3242V5.64844C3.88672 5.54297 3.81641 5.40234 3.74609 5.29688L2.76172 4.13672V3.92578H5.82031L8.17578 9.12891L10.2852 3.96094H13.2031V4.13672Z" fill="white"/>
</svg>
