<svg width="62" height="11" viewBox="0 0 62 11" fill="none" xmlns="http://www.w3.org/2000/svg">
<path d="M11.208 10.4561L11.18 0.656054H9.318L5.706 6.74605L2.038 0.656054H0.162V10.4561H2.29V4.70205L5.16 9.42005H6.182L9.066 4.57605L9.08 10.4561H11.208ZM13.5331 10.4561H15.8011V0.656054H13.5331V10.4561ZM21.3468 10.6241C24.1468 10.6241 25.5048 9.22405 25.5048 7.58605C25.5048 3.98805 19.8068 5.23405 19.8068 3.42805C19.8068 2.81205 20.3248 2.30805 21.6688 2.30805C22.5368 2.30805 23.4748 2.56005 24.3848 3.07805L25.0848 1.35605C24.1748 0.782054 22.9148 0.488055 21.6828 0.488055C18.8968 0.488055 17.5528 1.87405 17.5528 3.54005C17.5528 7.18005 23.2508 5.92005 23.2508 7.75405C23.2508 8.35605 22.7048 8.80405 21.3608 8.80405C20.1848 8.80405 18.9528 8.38405 18.1268 7.78205L17.3568 9.49005C18.2248 10.1621 19.7928 10.6241 21.3468 10.6241ZM30.2746 10.6241C33.0746 10.6241 34.4326 9.22405 34.4326 7.58605C34.4326 3.98805 28.7346 5.23405 28.7346 3.42805C28.7346 2.81205 29.2526 2.30805 30.5966 2.30805C31.4646 2.30805 32.4026 2.56005 33.3126 3.07805L34.0126 1.35605C33.1026 0.782054 31.8426 0.488055 30.6106 0.488055C27.8246 0.488055 26.4806 1.87405 26.4806 3.54005C26.4806 7.18005 32.1786 5.92005 32.1786 7.75405C32.1786 8.35605 31.6326 8.80405 30.2886 8.80405C29.1126 8.80405 27.8806 8.38405 27.0546 7.78205L26.2846 9.49005C27.1526 10.1621 28.7206 10.6241 30.2746 10.6241ZM35.9823 10.4561H38.2503V0.656054H35.9823V10.4561ZM45.3221 10.6241C48.4021 10.6241 50.6841 8.48205 50.6841 5.55605C50.6841 2.63005 48.4021 0.488055 45.3221 0.488055C42.2281 0.488055 39.9601 2.64405 39.9601 5.55605C39.9601 8.46805 42.2281 10.6241 45.3221 10.6241ZM45.3221 8.69205C43.5721 8.69205 42.2561 7.41805 42.2561 5.55605C42.2561 3.69405 43.5721 2.42005 45.3221 2.42005C47.0721 2.42005 48.3881 3.69405 48.3881 5.55605C48.3881 7.41805 47.0721 8.69205 45.3221 8.69205ZM59.1366 0.656054V6.60605L54.2646 0.656054H52.3886V10.4561H54.6286V4.50605L59.5146 10.4561H61.3766V0.656054H59.1366Z" fill="url(#paint0_linear)"/>
<defs>
<linearGradient id="paint0_linear" x1="66.2323" y1="-9.04396" x2="-4.69114" y2="1.50359" gradientUnits="userSpaceOnUse">
<stop offset="0.0170869" stop-color="#0AE8AF"/>
<stop offset="1" stop-color="#7575F1"/>
</linearGradient>
</defs>
</svg>
