<svg width="109" height="11" viewBox="0 0 109 11" fill="none" xmlns="http://www.w3.org/2000/svg">
<path d="M5.908 10.168C8.988 10.168 11.27 8.026 11.27 5.1C11.27 2.174 8.988 0.0319998 5.908 0.0319998C2.814 0.0319998 0.546 2.188 0.546 5.1C0.546 8.012 2.814 10.168 5.908 10.168ZM5.908 8.236C4.158 8.236 2.842 6.962 2.842 5.1C2.842 3.238 4.158 1.964 5.908 1.964C7.658 1.964 8.974 3.238 8.974 5.1C8.974 6.962 7.658 8.236 5.908 8.236ZM17.3285 10.168C20.1145 10.168 21.7665 8.572 21.7665 5.688V0.199999H19.5265V5.604C19.5265 7.466 18.7285 8.236 17.3425 8.236C15.9705 8.236 15.1585 7.466 15.1585 5.604V0.199999H12.8905V5.688C12.8905 8.572 14.5425 10.168 17.3285 10.168ZM32.6877 10L30.4897 6.85C31.7637 6.304 32.5057 5.226 32.5057 3.756C32.5057 1.558 30.8677 0.199999 28.2497 0.199999H24.0077V10H26.2757V7.27H28.2497H28.3617L30.2517 10H32.6877ZM30.2097 3.756C30.2097 4.82 29.5097 5.464 28.1237 5.464H26.2757V2.048H28.1237C29.5097 2.048 30.2097 2.678 30.2097 3.756ZM40.0735 10.168C42.3835 10.168 43.6015 8.978 43.6015 6.556V0.199999H37.9035V2.02H41.3475V6.682C41.3475 7.76 40.8715 8.306 39.9615 8.306C39.2615 8.306 38.6735 7.942 38.1415 7.228L36.8815 8.74C37.5955 9.664 38.7575 10.168 40.0735 10.168ZM50.5877 10.168C53.6677 10.168 55.9497 8.026 55.9497 5.1C55.9497 2.174 53.6677 0.0319998 50.5877 0.0319998C47.4937 0.0319998 45.2257 2.188 45.2257 5.1C45.2257 8.012 47.4937 10.168 50.5877 10.168ZM50.5877 8.236C48.8377 8.236 47.5217 6.962 47.5217 5.1C47.5217 3.238 48.8377 1.964 50.5877 1.964C52.3377 1.964 53.6537 3.238 53.6537 5.1C53.6537 6.962 52.3377 8.236 50.5877 8.236ZM62.0082 10.168C64.7942 10.168 66.4462 8.572 66.4462 5.688V0.199999H64.2062V5.604C64.2062 7.466 63.4082 8.236 62.0222 8.236C60.6502 8.236 59.8382 7.466 59.8382 5.604V0.199999H57.5702V5.688C57.5702 8.572 59.2222 10.168 62.0082 10.168ZM77.3674 10L75.1694 6.85C76.4434 6.304 77.1854 5.226 77.1854 3.756C77.1854 1.558 75.5474 0.199999 72.9294 0.199999H68.6874V10H70.9554V7.27H72.9294H73.0414L74.9314 10H77.3674ZM74.8894 3.756C74.8894 4.82 74.1894 5.464 72.8034 5.464H70.9554V2.048H72.8034C74.1894 2.048 74.8894 2.678 74.8894 3.756ZM85.7303 0.199999V6.15L80.8583 0.199999H78.9823V10H81.2223V4.05L86.1083 10H87.9703V0.199999H85.7303ZM92.543 8.18V5.912H97.093V4.148H92.543V2.02H97.695V0.199999H90.289V10H97.877V8.18H92.543ZM108.098 0.199999H105.872L103.254 4.554L100.636 0.199999H98.2278L102.022 6.5V10H104.29V6.528L108.098 0.199999Z" fill="url(#paint0_linear)"/>
<defs>
<linearGradient id="paint0_linear" x1="113.455" y1="-9.50002" x2="-1.62779" y2="19.3811" gradientUnits="userSpaceOnUse">
<stop offset="0.0170869" stop-color="#0AE8AF"/>
<stop offset="1" stop-color="#7575F1"/>
</linearGradient>
</defs>
</svg>
