<svg width="15" height="14" viewBox="0 0 15 14" fill="none" xmlns="http://www.w3.org/2000/svg">
<path d="M13.2239 5.5H8.72388V1C8.72388 0.46875 8.25513 0 7.72388 0H6.72388C6.16138 0 5.72388 0.46875 5.72388 1V5.5H1.22388C0.661381 5.5 0.223881 5.96875 0.223881 6.5V7.5C0.223881 8.0625 0.661381 8.5 1.22388 8.5H5.72388V13C5.72388 13.5625 6.16138 14 6.72388 14H7.72388C8.25513 14 8.72388 13.5625 8.72388 13V8.5H13.2239C13.7551 8.5 14.2239 8.0625 14.2239 7.5V6.5C14.2239 5.96875 13.7551 5.5 13.2239 5.5Z" fill="white"/>
</svg>
