<svg width="14" height="11" viewBox="0 0 14 11" fill="none" xmlns="http://www.w3.org/2000/svg">
<path d="M13.3271 4.91027L9.86783 1.29883C9.76908 1.19575 9.63747 1.13916 9.49714 1.13916C9.35665 1.13916 9.22511 1.19583 9.12637 1.29883L8.81229 1.6268C8.71362 1.72972 8.65926 1.8672 8.65926 2.01379C8.65926 2.16029 8.71362 2.3024 8.81229 2.40533L10.8304 4.51677H1.03312C0.744038 4.51677 0.515625 4.75303 0.515625 5.0549V5.51855C0.515625 5.82042 0.744038 6.0805 1.03312 6.0805H10.8533L8.81237 8.20374C8.7137 8.30682 8.65934 8.44056 8.65934 8.58715C8.65934 8.73357 8.7137 8.86926 8.81237 8.97227L9.12644 9.29917C9.22519 9.40226 9.35672 9.45844 9.49721 9.45844C9.63755 9.45844 9.76916 9.40153 9.86791 9.29844L13.3272 5.68709C13.4262 5.58368 13.4806 5.44563 13.4803 5.29888C13.4806 5.15165 13.4262 5.01352 13.3271 4.91027Z" fill="white"/>
</svg>
