<svg width="82" height="10" viewBox="0 0 82 10" fill="none" xmlns="http://www.w3.org/2000/svg">
<g clip-path="url(#clip0)">
<path d="M23.9361 4H18.0187V2H25.4681V0H18.0051C17.4867 0 16.9896 0.20925 16.6231 0.581719C16.2567 0.954186 16.0508 1.45936 16.0508 1.98611V4.01389C16.0508 4.54064 16.2567 5.04581 16.6231 5.41828C16.9896 5.79075 17.4867 6 18.0051 6H23.9224V8H16.1915V10H23.9361C24.4544 10 24.9515 9.79075 25.3179 9.41828C25.6845 9.04581 25.8904 8.54063 25.8904 8.01388V5.98611C25.8904 5.45936 25.6845 4.95419 25.3179 4.58172C24.9515 4.20925 24.4544 4 23.9361 4Z" fill="white"/>
<path d="M35.3922 0H29.453C29.1963 -6.38464e-08 28.9423 0.0513823 28.7052 0.15121C28.4683 0.25104 28.2529 0.397357 28.0715 0.581803C27.8902 0.766248 27.7464 0.985206 27.6483 1.22617C27.5502 1.46712 27.4999 1.72535 27.5 1.98611V8.01388C27.4999 8.27465 27.5502 8.53287 27.6483 8.77383C27.7464 9.01479 27.8902 9.23375 28.0715 9.4182C28.2529 9.60265 28.4683 9.74896 28.7052 9.84879C28.9423 9.94861 29.1963 10 29.453 10H35.3922C35.9105 10 36.4076 9.79075 36.7741 9.41828C37.1405 9.04581 37.3464 8.54063 37.3464 8.01388V1.98611C37.3464 1.45936 37.1405 0.954186 36.7741 0.581719C36.4076 0.20925 35.9105 0 35.3922 0ZM35.3785 8H29.4748V2H35.3785V8Z" fill="white"/>
<path d="M56.1795 4.86348e-07H50.3879C49.8696 4.86348e-07 49.3725 0.209251 49.006 0.581719C48.6395 0.954187 48.4336 1.45936 48.4336 1.98611V10H50.4015V6.71389H56.1659V10H58.1338V1.98611C58.134 1.72524 58.0836 1.4669 57.9854 1.22584C57.8873 0.984795 57.7433 0.765775 57.5618 0.581311C57.3804 0.396848 57.1648 0.250559 56.9276 0.150813C56.6905 0.0510655 56.4363 -0.000182132 56.1795 4.86348e-07ZM56.1659 4.71389H50.4015V2H56.1659V4.71389Z" fill="white"/>
<path d="M79.2213 4.37103e-06H73.431C73.1741 -0.00054354 72.9195 0.0504244 72.6819 0.149991C72.4443 0.249556 72.2285 0.395766 72.0465 0.580248C71.8646 0.764729 71.7203 0.983862 71.6219 1.2251C71.5234 1.46633 71.4727 1.72495 71.4727 1.98611V10H73.4406V6.7139H79.2077V10H81.1756V1.98611C81.1756 1.45936 80.9697 0.954191 80.6033 0.581723C80.2367 0.209255 79.7396 4.37103e-06 79.2213 4.37103e-06ZM79.2077 4.7139H73.4447V2H79.2077V4.7139Z" fill="white"/>
<path d="M67.7545 8H66.9673L64.1466 0.833333C64.0502 0.587441 63.8833 0.376599 63.6678 0.228047C63.4521 0.0794952 63.1976 5.88471e-05 62.9372 0H61.1852C60.8398 0 60.5085 0.139451 60.2643 0.387677C60.0201 0.635902 59.8828 0.972568 59.8828 1.32361V10H61.8507V2H62.6379L65.4572 9.16667C65.5533 9.41256 65.7198 9.62346 65.9352 9.77204C66.1506 9.92062 66.4049 10 66.6653 10H68.4173C68.7627 10 69.094 9.86055 69.3382 9.61232C69.5825 9.36409 69.7196 9.02744 69.7196 8.67638V0H67.7517L67.7545 8Z" fill="white"/>
<path d="M41.0578 0H39.0898V8.01388C39.0898 8.54063 39.2958 9.04581 39.6623 9.41828C40.0288 9.79075 40.5258 10 41.0441 10H46.9615V8H41.0578V0Z" fill="white"/>
<path fill-rule="evenodd" clip-rule="evenodd" d="M2.08092 7.625C2.11586 7.58654 2.15808 7.55565 2.20504 7.53417C2.252 7.5127 2.30275 7.50107 2.35424 7.5H10.942C10.9784 7.50052 11.0137 7.5117 11.044 7.53219C11.0742 7.55268 11.098 7.58161 11.1124 7.6155C11.1269 7.6494 11.1314 7.6868 11.1253 7.72323C11.1194 7.75966 11.1032 7.79355 11.0787 7.82083L9.25834 9.875C9.2234 9.91346 9.1812 9.94435 9.13422 9.96583C9.08726 9.98731 9.03651 9.99893 8.98502 10H0.391794C0.355459 9.99948 0.320045 9.9883 0.289812 9.96781C0.25958 9.94732 0.235816 9.91838 0.22138 9.8845C0.206943 9.8506 0.202449 9.8132 0.208437 9.77677C0.214424 9.74034 0.23064 9.70645 0.255134 9.67917L2.08092 7.625ZM11.0869 5.92222C11.1114 5.9495 11.1276 5.9834 11.1335 6.01982C11.1396 6.05625 11.1351 6.09366 11.1206 6.12755C11.1062 6.16145 11.0824 6.19037 11.0521 6.21086C11.0219 6.23135 10.9866 6.24253 10.9502 6.24305L2.35971 6.25C2.30822 6.24893 2.25747 6.23731 2.2105 6.21583C2.16354 6.19435 2.12132 6.16346 2.08639 6.125L0.2524 4.07778C0.227908 4.0505 0.211692 4.0166 0.205703 3.98018C0.199715 3.94375 0.20421 3.90634 0.218646 3.87245C0.233083 3.83855 0.256846 3.80963 0.287079 3.78914C0.317311 3.76865 0.352726 3.75747 0.389061 3.75695L8.97956 3.75C9.03105 3.75107 9.0818 3.76269 9.12876 3.78417C9.17572 3.80565 9.21794 3.83654 9.25288 3.875L11.0869 5.92222ZM2.08092 0.125C2.11586 0.0865435 2.15808 0.0556504 2.20504 0.0341715C2.252 0.0126926 2.30275 0.00106994 2.35424 0L10.9475 0.00694445C10.9838 0.00746453 11.0192 0.0186424 11.0495 0.0391334C11.0797 0.0596244 11.1035 0.088556 11.1178 0.122448C11.1323 0.156341 11.1368 0.19375 11.1309 0.230176C11.1248 0.266603 11.1086 0.300496 11.0841 0.327778L9.25834 2.375C9.2234 2.41346 9.1812 2.44435 9.13422 2.46583C9.08726 2.48731 9.03651 2.49893 8.98502 2.5H0.391794C0.355459 2.49948 0.320045 2.4883 0.289812 2.46781C0.25958 2.44732 0.235816 2.41839 0.22138 2.3845C0.206943 2.3506 0.202449 2.3132 0.208437 2.27677C0.214424 2.24034 0.23064 2.20645 0.255134 2.17917L2.08092 0.125Z" fill="url(#paint0_linear)"/>
</g>
<defs>
<linearGradient id="paint0_linear" x1="0.535288" y1="10.2181" x2="10.9701" y2="-0.049288" gradientUnits="userSpaceOnUse">
<stop stop-color="#9945FF"/>
<stop offset="0.14" stop-color="#8A53F4"/>
<stop offset="0.42" stop-color="#6377D6"/>
<stop offset="0.79" stop-color="#24B0A7"/>
<stop offset="0.99" stop-color="#00D18C"/>
<stop offset="1" stop-color="#00D18C"/>
</linearGradient>
<clipPath id="clip0">
<rect width="81.1765" height="10" fill="white"/>
</clipPath>
</defs>
</svg>
