<svg width="18" height="18" viewBox="0 0 18 18" fill="none" xmlns="http://www.w3.org/2000/svg">
<path d="M9 0.53125C4.18359 0.53125 0.28125 4.43359 0.28125 9.25C0.28125 14.0664 4.18359 17.9688 9 17.9688C13.8164 17.9688 17.7188 14.0664 17.7188 9.25C17.7188 4.43359 13.8164 0.53125 9 0.53125ZM13.2539 6.50781L11.8477 13.2578C11.7422 13.75 11.4609 13.8555 11.0391 13.6445L8.85938 12.0273L7.80469 13.0469C7.69922 13.1523 7.59375 13.2578 7.38281 13.2578L7.52344 11.043L11.5664 7.38672C11.7422 7.24609 11.5312 7.14062 11.2852 7.28125L6.29297 10.4453L4.14844 9.77734C3.69141 9.63672 3.69141 9.28516 4.25391 9.07422L12.6562 5.83984C13.043 5.69922 13.3945 5.94531 13.2539 6.50781Z" fill="white"/>
</svg>
