<svg width="100" height="11" viewBox="0 0 100 11" fill="none" xmlns="http://www.w3.org/2000/svg">
<path d="M3.192 10H5.46V2.048H8.596V0.199999H0.056V2.048H3.192V10ZM14.4256 10.168C17.5056 10.168 19.7876 8.026 19.7876 5.1C19.7876 2.174 17.5056 0.0319998 14.4256 0.0319998C11.3316 0.0319998 9.06358 2.188 9.06358 5.1C9.06358 8.012 11.3316 10.168 14.4256 10.168ZM14.4256 8.236C12.6756 8.236 11.3596 6.962 11.3596 5.1C11.3596 3.238 12.6756 1.964 14.4256 1.964C16.1756 1.964 17.4916 3.238 17.4916 5.1C17.4916 6.962 16.1756 8.236 14.4256 8.236ZM28.1981 10H30.8441L26.5461 4.568L30.6061 0.199999H28.0861L23.7461 4.778V0.199999H21.4921V10H23.7461V7.522L25.0621 6.15L28.1981 10ZM34.1094 8.18V5.912H38.6594V4.148H34.1094V2.02H39.2614V0.199999H31.8554V10H39.4434V8.18H34.1094ZM47.9959 0.199999V6.15L43.1239 0.199999H41.2479V10H43.4879V4.05L48.3739 10H50.2359V0.199999H47.9959ZM57.3006 10.168C60.3806 10.168 62.6626 8.026 62.6626 5.1C62.6626 2.174 60.3806 0.0319998 57.3006 0.0319998C54.2066 0.0319998 51.9386 2.188 51.9386 5.1C51.9386 8.012 54.2066 10.168 57.3006 10.168ZM57.3006 8.236C55.5506 8.236 54.2346 6.962 54.2346 5.1C54.2346 3.238 55.5506 1.964 57.3006 1.964C59.0506 1.964 60.3666 3.238 60.3666 5.1C60.3666 6.962 59.0506 8.236 57.3006 8.236ZM75.4131 10L75.3851 0.199999H73.5231L69.9111 6.29L66.2431 0.199999H64.3671V10H66.4951V4.246L69.3651 8.964H70.3871L73.2711 4.12L73.2851 10H75.4131ZM77.7382 10H80.0062V0.199999H77.7382V10ZM87.0219 10.168C88.7299 10.168 90.1439 9.552 91.0679 8.418L89.6119 7.074C88.9539 7.844 88.1279 8.236 87.1479 8.236C85.3139 8.236 84.0119 6.948 84.0119 5.1C84.0119 3.252 85.3139 1.964 87.1479 1.964C88.1279 1.964 88.9539 2.356 89.6119 3.112L91.0679 1.768C90.1439 0.647999 88.7299 0.0319998 87.0359 0.0319998C83.9839 0.0319998 81.7159 2.146 81.7159 5.1C81.7159 8.054 83.9839 10.168 87.0219 10.168ZM95.7375 10.168C98.5375 10.168 99.8955 8.768 99.8955 7.13C99.8955 3.532 94.1975 4.778 94.1975 2.972C94.1975 2.356 94.7155 1.852 96.0595 1.852C96.9275 1.852 97.8655 2.104 98.7755 2.622L99.4755 0.899999C98.5655 0.325999 97.3055 0.0319998 96.0735 0.0319998C93.2875 0.0319998 91.9435 1.418 91.9435 3.084C91.9435 6.724 97.6415 5.464 97.6415 7.298C97.6415 7.9 97.0955 8.348 95.7515 8.348C94.5755 8.348 93.3435 7.928 92.5175 7.326L91.7475 9.034C92.6155 9.706 94.1835 10.168 95.7375 10.168Z" fill="url(#paint0_linear)"/>
<defs>
<linearGradient id="paint0_linear" x1="106.101" y1="-9.50002" x2="-2.32809" y2="15.9477" gradientUnits="userSpaceOnUse">
<stop offset="0.0170869" stop-color="#0AE8AF"/>
<stop offset="1" stop-color="#7575F1"/>
</linearGradient>
</defs>
</svg>
