<svg width="23" height="22" viewBox="0 0 23 22" fill="none" xmlns="http://www.w3.org/2000/svg">
<path fill-rule="evenodd" clip-rule="evenodd" d="M8.27632 14.6542L9.23501 15.6129L11.1524 13.6955L10.1937 12.7368C8.82415 11.3673 8.82415 9.176 10.1937 7.80645L14.3024 3.69779C15.6719 2.32824 17.8632 2.32824 19.2327 3.69779C20.6023 5.06734 20.6023 7.25863 19.2327 8.62818L18.2741 9.58687L20.1914 11.5042L21.1501 10.5456C23.6153 8.08036 23.6153 4.24561 21.1501 1.78042C19.9175 0.684776 18.411 0 16.7676 0C15.1241 0 13.6176 0.547821 12.385 1.78042L8.27632 5.88908C5.81113 8.35427 5.81113 12.189 8.27632 14.6542ZM2.79811 20.1326C4.03071 21.2282 5.53722 21.913 7.18068 21.913C8.82415 21.913 10.4676 21.2282 11.5633 20.1326L15.6719 16.0239C18.1371 13.5587 18.1371 9.72396 15.6719 7.25876L14.7132 6.30008L12.7958 8.21745L13.7545 9.17614C15.1241 10.5457 15.1241 12.737 13.7545 14.1065L9.64588 18.2152C8.27633 19.5847 6.08504 19.5847 4.71549 18.2152C3.34594 16.8456 3.34594 14.6543 4.71549 13.2848L5.67417 12.3261L3.7568 10.4087L2.79811 11.3674C0.33292 13.8326 0.33292 17.6674 2.79811 20.1326Z" fill="url(#paint0_linear)"/>
<defs>
<linearGradient id="paint0_linear" x1="20.499" y1="1.45654" x2="1.99902" y2="21.9565" gradientUnits="userSpaceOnUse">
<stop stop-color="#09E9AF"/>
<stop offset="1" stop-color="#7575F1"/>
</linearGradient>
</defs>
</svg>
