<svg width="115" height="57" viewBox="0 0 115 57" fill="none" xmlns="http://www.w3.org/2000/svg">
<mask id="path-1-inside-1" fill="white">
<path fill-rule="evenodd" clip-rule="evenodd" d="M50.875 50L57 57L63.125 50L110 50C112.761 50 115 47.7614 115 45L115 5C115 2.23857 112.761 -1.95702e-07 110 -4.37114e-07L5 -9.61651e-06C2.23858 -9.85792e-06 4.78739e-06 2.23857 4.54598e-06 4.99999L1.04907e-06 45C8.07662e-07 47.7614 2.23858 50 5 50L50.875 50Z"/>
</mask>
<path fill-rule="evenodd" clip-rule="evenodd" d="M50.875 50L57 57L63.125 50L110 50C112.761 50 115 47.7614 115 45L115 5C115 2.23857 112.761 -1.95702e-07 110 -4.37114e-07L5 -9.61651e-06C2.23858 -9.85792e-06 4.78739e-06 2.23857 4.54598e-06 4.99999L1.04907e-06 45C8.07662e-07 47.7614 2.23858 50 5 50L50.875 50Z" fill="url(#paint0_linear)" fill-opacity="0.3"/>
<path d="M57 57L56.2474 57.6585L57 58.5186L57.7526 57.6585L57 57ZM50.875 50L51.6276 49.3415L51.3288 49L50.875 49L50.875 50ZM63.125 50L63.125 49L62.6712 49L62.3724 49.3415L63.125 50ZM110 50L110 51L110 50ZM115 45L116 45L115 45ZM115 5L114 5L115 5ZM4.54598e-06 4.99999L-0.999995 4.99999L4.54598e-06 4.99999ZM1.04907e-06 45L1 45L1.04907e-06 45ZM57.7526 56.3415L51.6276 49.3415L50.1224 50.6585L56.2474 57.6585L57.7526 56.3415ZM62.3724 49.3415L56.2474 56.3415L57.7526 57.6585L63.8776 50.6585L62.3724 49.3415ZM110 49L63.125 49L63.125 51L110 51L110 49ZM114 45C114 47.2091 112.209 49 110 49L110 51C113.314 51 116 48.3137 116 45L114 45ZM114 5L114 45L116 45L116 5L114 5ZM110 1C112.209 1 114 2.79086 114 5L116 5C116 1.68629 113.314 -1 110 -1L110 1ZM5 0.99999L110 1L110 -1L5.00001 -1.00001L5 0.99999ZM1 4.99999C1 2.79085 2.79087 0.99999 5 0.99999L5.00001 -1.00001C1.6863 -1.00001 -0.999995 1.68628 -0.999995 4.99999L1 4.99999ZM1 45L1 4.99999L-0.999995 4.99999L-0.999999 45L1 45ZM5 49C2.79086 49 1 47.2091 1 45L-0.999999 45C-0.999999 48.3137 1.68629 51 5 51L5 49ZM50.875 49L5 49L5 51L50.875 51L50.875 49Z" fill="url(#paint1_linear)" mask="url(#path-1-inside-1)"/>
<defs>
<linearGradient id="paint0_linear" x1="57.5" y1="50" x2="21.0234" y2="-12.3077" gradientUnits="userSpaceOnUse">
<stop stop-color="white" stop-opacity="0.2"/>
<stop offset="1" stop-color="white" stop-opacity="0"/>
</linearGradient>
<linearGradient id="paint1_linear" x1="115" y1="1.75544" x2="28.6767" y2="15.964" gradientUnits="userSpaceOnUse">
<stop stop-color="#7477F0"/>
<stop offset="1" stop-color="#0FE3B2"/>
</linearGradient>
</defs>
</svg>
