<svg width="110" height="1014" viewBox="0 0 110 1014" fill="none" xmlns="http://www.w3.org/2000/svg">
<path d="M108 1C108 1 22.7063 99.5082 5.97789 168.864C-17.2964 265.358 69.3253 318.402 65.4908 415.962C62.5217 491.501 12.4613 531.481 16.4801 607.001C20.9418 690.842 127.651 733.119 100.498 815.265C89.0299 849.96 56.0698 864.391 45.4864 899.197C25.3894 965.29 59.5 1012.5 59.5 1012.5" stroke="white" stroke-width="3"/>
<path d="M108 1C108 1 22.7063 99.5082 5.97789 168.864C-17.2964 265.358 69.3253 318.402 65.4908 415.962C62.5217 491.501 12.4613 531.481 16.4801 607.001C20.9418 690.842 127.651 733.119 100.498 815.265C89.0299 849.96 56.0698 864.391 45.4864 899.197C25.3894 965.29 59.5 1012.5 59.5 1012.5" stroke="url(#paint0_linear)" stroke-width="3"/>
<defs>
<linearGradient id="paint0_linear" x1="90.996" y1="0.999993" x2="90.2115" y2="1068.31" gradientUnits="userSpaceOnUse">
<stop stop-color="#7576F0"/>
<stop offset="0.510417" stop-color="#3DB1CE"/>
<stop offset="1" stop-color="#07EBAD"/>
</linearGradient>
</defs>
</svg>
