<svg width="18" height="18" viewBox="0 0 18 18" fill="none" xmlns="http://www.w3.org/2000/svg">
<g clip-path="url(#clip0)">
<path d="M16.2263 3.18736C16.1293 1.93525 15.0802 0.945908 13.8036 0.945908H2.43077C1.09044 0.945908 0 2.03635 0 3.37668V14.6233C0 15.9636 1.09044 17.0541 2.43077 17.0541H15.5693C16.9096 17.0541 18 15.9636 18 14.6233V5.52715C18 4.41453 17.2483 3.4748 16.2263 3.18736ZM2.43077 2.08145H13.8037C14.4216 2.08145 14.9395 2.51654 15.068 3.09641H2.43077C1.95487 3.09641 1.51084 3.23442 1.13554 3.47175V3.37668C1.13554 2.66249 1.71659 2.08145 2.43077 2.08145V2.08145ZM15.5692 15.9185H2.43077C1.71659 15.9185 1.13554 15.3375 1.13554 14.6233V5.52715C1.13554 4.81296 1.71659 4.23192 2.43077 4.23192H15.5693C16.2834 4.23192 16.8645 4.81296 16.8645 5.52715V7.5086H13.244C11.8093 7.5086 10.6421 8.67583 10.6421 10.1105C10.6421 11.5452 11.8094 12.7124 13.244 12.7124H16.8645V14.6233C16.8645 15.3375 16.2834 15.9185 15.5692 15.9185V15.9185ZM16.8645 11.5769H13.244C12.4355 11.5769 11.7777 10.9191 11.7777 10.1105C11.7777 9.30194 12.4355 8.64414 13.244 8.64414H16.8645V11.5769Z" fill="white"/>
<path d="M13.4544 10.7447C13.7809 10.7447 14.0455 10.4801 14.0455 10.1536C14.0455 9.82714 13.7809 9.56248 13.4544 9.56248C13.1279 9.56248 12.8633 9.82714 12.8633 10.1536C12.8633 10.4801 13.1279 10.7447 13.4544 10.7447Z" fill="white"/>
</g>
<defs>
<clipPath id="clip0">
<rect width="18" height="18" fill="white"/>
</clipPath>
</defs>
</svg>
